<svg xmlns="http://www.w3.org/2000/svg" viewBox="0 0 120 150" width="120" height="150">
  <path d="M60 6C35 6 14 28 14 52C14 84 60 124 60 124S106 84 106 52C106 28 85 6 60 6Z" fill="#6B7AE8"/>
  <path d="M20 44C20 44 35 36 60 36C85 36 100 44 100 44L100 58C100 58 85 66 60 66C35 66 20 58 20 58Z" fill="#1A1A18" opacity="0.6"/>
  <ellipse cx="42" cy="51" rx="9" ry="4" fill="#FFF7F0"/>
  <ellipse cx="78" cy="51" rx="9" ry="4" fill="#FFF7F0"/>
  <circle cx="43" cy="51" r="2.5" fill="#6B7AE8"/>
  <circle cx="79" cy="51" r="2.5" fill="#6B7AE8"/>
</svg>
